ply 
format ascii 1.0
comment PLY created by critic2
element vertex 14
property float x
property float y
property float z
property uchar red
property uchar green
property uchar blue
property uchar alpha
element face 16
property list uchar int vertex_indices
end_header
      0.000000000000       5.258162964755       3.766460131309 108 108 108 0
      0.953045254371       5.258162964755       3.838626823670 108 108 108 0
     -0.953046147085       5.258162964755       3.838627716384 108 108 108 0
      1.924012673402       5.258162964755       2.885581569299 108 108 108 0
      0.000000000000       7.182170938045       2.885581569299 108 108 108 0
     -1.924010372070       5.258162964755       2.885581569299 108 108 108 0
      0.000000000000       3.334152808228       2.885581569299 108 108 108 0
      0.000000000000       5.258162964755      -0.883666607796 108 108 108 0
      1.000079523764       5.258162964755       1.885502045535 108 108 108 0
     -1.000079006631       5.258162964755       1.885502562668 108 108 108 0
      1.924008866360       5.258162964755       2.885581569299 108 108 108 0
      0.000000000000       7.182170938045       2.885581569299 108 108 108 0
     -1.924008815379       5.258162964755       2.885581569299 108 108 108 0
      0.000000000000       3.334152381097       2.885581569299 108 108 108 0
3 0 1 2 
3 7 8 9 
3 0 2 1 
3 7 9 8 
3 3 1 4 
3 4 1 2 
3 4 2 5 
3 10 8 11 
3 11 8 9 
3 11 9 12 
3 5 2 6 
3 6 2 1 
3 6 1 3 
3 12 9 13 
3 13 9 8 
3 13 8 10 
