ply 
format ascii 1.0
comment PLY created by critic2
element vertex 18
property float x
property float y
property float z
property uchar red
property uchar green
property uchar blue
property uchar alpha
element face 32
property list uchar int vertex_indices
end_header
      2.234185350789       1.591527349116       2.387291023674 128 128 128 0                                                   
      0.795763674558       2.296115619147       2.387291023674 128 128 128 0                                                   
      0.795763674558       1.591527349116       3.978820175177 128 128 128 0                                                   
      0.000000758899       1.591527349116       2.387291023674 128 128 128 0                                                   
      0.795763674558      -0.000001802386       2.387291023674 128 128 128 0                                                   
      0.795763674558       1.591527349116       1.682702753643 128 128 128 0                                                   
      1.461334370187       2.257098044746       2.387291023674 128 128 128 0                                                   
      0.795763674558       2.292852892962       3.088616567520 128 128 128 0                                                   
      2.298519751287       1.591527349116       3.890047100404 128 128 128 0                                                   
      0.795763674558       0.000000765094       3.978817607696 128 128 128 0                                                   
      2.298519751287       0.088771272387       2.387291023674 128 128 128 0                                                   
      0.000000885631       1.591527349116       3.183053812601 128 128 128 0                                                   
     -0.000002468262       0.795761206296       2.387291023674 128 128 128 0                                                   
      0.088775417596       2.298515606079       2.387291023674 128 128 128 0                                                   
      1.461334370187       1.591527349116       1.721720328045 128 128 128 0                                                   
      0.795763674558       0.890201805271       1.685965479829 128 128 128 0                                                   
      0.795763674558       1.989409078969       1.989409293822 128 128 128 0                                                   
      0.088775417596       1.591527349116       1.680302766712 128 128 128 0                                                   
3 0 8 6                                                                                                                        
3 8 7 6                                                                                                                        
3 8 2 7                                                                                                                        
3 6 7 1                                                                                                                        
3 0 10 8                                                                                                                       
3 10 9 8                                                                                                                       
3 10 4 9                                                                                                                       
3 8 9 2                                                                                                                        
3 4 12 9                                                                                                                       
3 12 11 9                                                                                                                      
3 12 3 11                                                                                                                      
3 9 11 2                                                                                                                       
3 1 7 13                                                                                                                       
3 7 11 13                                                                                                                      
3 7 2 11                                                                                                                       
3 13 11 3                                                                                                                      
3 5 15 14                                                                                                                      
3 15 10 14                                                                                                                     
3 15 4 10                                                                                                                      
3 14 10 0                                                                                                                      
3 5 14 16                                                                                                                      
3 14 6 16                                                                                                                      
3 14 0 6                                                                                                                       
3 16 6 1                                                                                                                       
3 5 16 17                                                                                                                      
3 16 13 17                                                                                                                     
3 16 1 13                                                                                                                      
3 17 13 3                                                                                                                      
3 5 17 15                                                                                                                      
3 17 12 15                                                                                                                     
3 17 3 12                                                                                                                      
3 15 12 4                                                                                                                      
